# xmcd CD database file
#
# Track frame offsets:
#	150
#	20521
#	34293
#	52880
#	71268
#	94284
#	120482
#	137398
#	168561
#	192397
#	220553
#	238330
#	247087
#	263725
#	299276
#
# Disc length: 4229 seconds
#
# Revision: 3
# Processed by: cddbd v1.5.2PL0 Copyright (c) Steve Scherf et al.
# Submitted via: CDex 1.51
#
DISCID=d910830f
DTITLE=Michel Petrucciani and Stéphane Grappelli - Flamingo
DYEAR=1995
DGENRE=Jazz
TTITLE0=These Foolish Things
TTITLE1=Little Peace in C for U
TTITLE2=Flamingo
TTITLE3=Sweet Georgia Brown
TTITLE4=I Can't Get Started
TTITLE5=I Got Rhythm
TTITLE6=I Love New York in June
TTITLE7=Misty
TTITLE8=I Remember April
TTITLE9=Lover Man
TTITLE10=There Will Never Be Another You
TTITLE11=Valse du Passé
TTITLE12=Pennies From Heaven 
TTITLE13=Blues
TTITLE14=Night And Day
EXTD=YEAR: 1995
EXTT0=
EXTT1=
EXTT2=
EXTT3=
EXTT4=
EXTT5=
EXTT6=
EXTT7=
EXTT8=
EXTT9=
EXTT10=
EXTT11=
EXTT12=
EXTT13=
EXTT14=
PLAYORDER=
